<svg t="1610038579546" class="icon" viewBox="0 0 1024 1024" version="1.1" xmlns="http://www.w3.org/2000/svg" p-id="7643" width="200" height="200"><path d="M969.990564 488.198564c0 216.904205-175.839179 392.756513-392.756513 392.756513-216.904205 0-392.743385-175.852308-392.743384-392.756513 0-216.904205 175.839179-392.756513 392.743384-392.756513 216.917333 0 392.756513 175.852308 392.756513 392.756513" fill="#3B84C6" p-id="7644"></path><path d="M969.990564 488.198564c0 216.904205-175.839179 392.756513-392.756513 392.756513-216.904205 0-392.743385-175.852308-392.743384-392.756513" fill="#E7444F" p-id="7645"></path><path d="M526.322872 88.169026c-220.921436 0-400.01641 179.108103-400.01641 400.029538s179.094974 400.01641 400.01641 400.01641c220.934564 0 400.029538-179.094974 400.029538-400.01641S747.257436 88.182154 526.336 88.182154z m0 14.546051c212.900103 0 385.483487 172.596513 385.483487 385.483487S739.222974 873.682051 526.322872 873.682051C313.435897 873.682051 140.865641 701.085538 140.865641 488.198564S313.435897 102.715077 526.309744 102.715077z" fill="#000000" p-id="7646"></path><path d="M919.092513 488.198564H133.579487" fill="#E7444F" p-id="7647"></path><path d="M919.079385 480.925538v14.546052H133.579487v-14.546052z" fill="#000000" p-id="7648"></path><path d="M298.968615 267.211487a7.273026 7.273026 0 1 1 11.303385 9.137231c-34.198974 42.299077-57.934769 91.385436-67.715282 147.639795a7.273026 7.273026 0 0 1-14.322872-2.494359c10.226872-58.814359 35.039179-110.145641 70.734769-154.282667zM406.711795 176.219897a7.273026 7.273026 0 1 1 6.498461 12.996924l-1.614769 0.853333a272.554667 272.554667 0 0 0-18.195692 10.962051 363.533128 363.533128 0 0 0-47.261539 37.08718 7.273026 7.273026 0 1 1-9.885538-10.686359 378.00041 378.00041 0 0 1 49.165128-38.557539c4.699897-3.085128 9.058462-5.77641 13.049436-8.100102l4.529231-2.586257c1.667282-0.918974 2.914462-1.575385 3.702154-1.969231z" fill="#FFFFFF" p-id="7649"></path><path d="M629.970051 489.721436a101.822359 101.822359 0 1 1-203.644718 0 101.822359 101.822359 0 0 1 203.644718 0" fill="#FAF5F0" p-id="7650"></path><path d="M528.147692 380.626051a109.095385 109.095385 0 1 0 0 218.19077 109.095385 109.095385 0 0 0 0-218.19077z m0 14.546052a94.549333 94.549333 0 1 1 0 189.098666 94.549333 94.549333 0 0 1 0-189.098666z" fill="#000000" p-id="7651"></path><path d="M528.147692 422.281846l16.738462 51.515077h54.180102l-43.835077 31.849026 16.738462 51.515077-43.821949-31.849026-43.835077 31.849026 16.75159-51.515077-43.835077-31.849026h54.180103z" fill="#F4DD33" p-id="7652"></path><path d="M506.118564 466.523897h-48.889436l-0.827077 0.039385c-6.432821 0.669538-8.927179 9.137231-3.439589 13.115077l39.542153 28.737641-15.097436 46.500103-0.210051 0.761435c-1.39159 6.354051 5.907692 11.342769 11.395282 7.364924l39.555282-28.75077 39.555282 28.75077 0.656411 0.43323c5.618872 3.282051 12.629333-2.126769 10.52882-8.559589l-15.110564-46.500103 39.555282-28.737641 0.65641-0.525128c4.804923-4.332308 1.837949-12.629333-4.923077-12.629334h-48.902564l-15.097436-46.500102a7.273026 7.273026 0 0 0-13.837128 0l-15.110564 46.500102z m22.029128-20.703179l9.819898 30.221128 0.315077 0.787692c1.181538 2.56 3.741538 4.24041 6.603487 4.240411h31.796513l-25.731282 18.694564-0.708923 0.590769a7.273026 7.273026 0 0 0-1.929847 7.53559l9.819898 30.221128-25.705026-18.681436-0.787692-0.498872a7.273026 7.273026 0 0 0-7.771898 0.498872l-25.718153 18.681436 9.833025-30.221128 0.22318-0.905846a7.273026 7.273026 0 0 0-2.875077-7.220513l-25.731282-18.694564h31.809641c3.150769 0 5.933949-2.034872 6.905436-5.028103l9.833025-30.221128z" fill="#000000" p-id="7653"></path><path d="M913.591795 211.810462a15.753846 15.753846 0 1 1-31.507692 0 15.753846 15.753846 0 0 1 31.507692 0" fill="#378BCB" p-id="7654"></path><path d="M571.75959 993.686974a15.753846 15.753846 0 1 1-31.520821 0 15.753846 15.753846 0 0 1 31.507693 0M187.654564 734.129231l5.815795 10.633846c1.90359 3.492103 4.765538 6.340923 8.244513 8.244513l10.646974 5.828923-10.633846 5.828923a20.703179 20.703179 0 0 0-8.257641 8.244513l-5.815795 10.633846-5.828923-10.633846a20.703179 20.703179 0 0 0-8.244513-8.244513l-10.633846-5.828923 10.633846-5.828923a20.742564 20.742564 0 0 0 8.244513-8.231385l5.828923-10.646974z" fill="#E84756" p-id="7655"></path><path d="M571.75959 3.163897l5.815795 10.646975c1.90359 3.478974 4.765538 6.340923 8.244512 8.244513l10.646975 5.828923-10.646975 5.815795a20.768821 20.768821 0 0 0-8.244512 8.244512l-5.815795 10.646975-5.828923-10.646975a20.703179 20.703179 0 0 0-8.244513-8.244512l-10.646975-5.815795 10.646975-5.828923a20.742564 20.742564 0 0 0 8.244513-8.244513l5.828923-10.646975zM162.028308 98.330256l5.828923 10.633847c1.890462 3.478974 4.765538 6.340923 8.231384 8.244512l10.646975 5.815795-10.633846 5.828923a20.768821 20.768821 0 0 0-8.244513 8.244513l-5.828923 10.646975-5.828923-10.633847a20.768821 20.768821 0 0 0-8.244513-8.257641l-10.633846-5.828923 10.633846-5.815795a20.742564 20.742564 0 0 0 8.244513-8.231384l5.828923-10.660103z" fill="#FCFCFC" p-id="7656"></path><path d="M79.596308 464.278974a27.109744 27.109744 0 1 0 0 54.219488 27.109744 27.109744 0 0 0 0-54.219488z m0 14.546052a12.563692 12.563692 0 1 1 0 25.114256 12.563692 12.563692 0 0 1 0-25.114256z" fill="#3B84C5" p-id="7657"></path></svg>